# xmcd CD database file
#
# Track frame offsets:
#	187
#	27992
#	72780
#	99657
#	129762
#	174752
#	212770
#	247435
#
# Disc length: 3979 seconds
#
# Revision: 0
# Processed by: cddbd v1.5PL3 Copyright (c) Steve Scherf et al.
# Submitted via: CDex 1.50
#
DISCID=6a0f8908
DTITLE=LIGHTNING BLUES GUITAR  - Lightning vol．2
DYEAR=2003
DGENRE=Blues
TTITLE0=FOREVER START TONIGHT 
TTITLE1=BORN UNDER THE BAD SIGN 
TTITLE2=ALL YOUR LOVE 
TTITLE3=THE WEIGHT 
TTITLE4=KNOCKIN’ON HEAVEN’S DOOR 
TTITLE5=TRAVELING 
TTITLE6=FUTURE CHILD 
TTITLE7=LOVE IN VAIN 
EXTD=YEAR: 2003/07/27
EXTT0=
EXTT1=
EXTT2=
EXTT3=
EXTT4=
EXTT5=
EXTT6=
EXTT7=
PLAYORDER=
